<svg width="32" height="32" viewBox="0 0 32 32" fill="none" xmlns="http://www.w3.org/2000/svg">
<g id="Frame">
<path id="Vector" d="M6.66675 9.33325H25.0534C25.426 9.33327 25.7944 9.41135 26.1349 9.56246C26.4755 9.71357 26.7806 9.93437 27.0306 10.2106C27.2805 10.4868 27.4699 10.8124 27.5863 11.1663C27.7028 11.5202 27.7438 11.8945 27.7067 12.2653L26.9067 20.2653C26.841 20.9233 26.533 21.5334 26.0427 21.9771C25.5524 22.4208 24.9147 22.6666 24.2534 22.6666H11.5201C10.9034 22.6668 10.3057 22.4533 9.82867 22.0624C9.3517 21.6715 9.02496 21.1273 8.90408 20.5226L6.66675 9.33325Z" stroke="#454F5B" stroke-width="2" stroke-linecap="round" stroke-linejoin="round"/>
<path id="Vector_2" d="M6.66675 9.33333L5.58675 5.00933C5.51452 4.721 5.34802 4.46508 5.11369 4.28221C4.87936 4.09934 4.59065 4.00001 4.29341 4H2.66675" stroke="#454F5B" stroke-width="2" stroke-linecap="round" stroke-linejoin="round"/>
<path id="Vector_3" d="M10.6667 28H13.3334" stroke="#454F5B" stroke-width="2" stroke-linecap="round" stroke-linejoin="round"/>
<path id="Vector_4" d="M21.3333 28H23.9999" stroke="#454F5B" stroke-width="2" stroke-linecap="round" stroke-linejoin="round"/>
</g>
</svg>
